<?xml version="1.0" encoding="UTF-8" ?>
<!DOCTYPE svg PUBLIC "-//W3C//DTD SVG 1.1//EN" "http://www.w3.org/Graphics/SVG/1.1/DTD/svg11.dtd">
<svg width="1188pt" height="1024pt" viewBox="0 0 1188 1024" version="1.1" xmlns="http://www.w3.org/2000/svg">
<g id="#ffffffff">
<path fill="#ffffff" opacity="1.00" d=" M 104.30 6.38 C 430.21 6.33 756.12 6.38 1082.04 6.36 C 1093.43 6.34 1104.96 7.50 1115.83 11.12 C 1148.02 21.26 1173.48 49.81 1180.04 82.91 C 1182.46 93.78 1181.77 104.97 1181.87 116.01 C 1181.87 322.99 1181.87 529.97 1181.87 736.95 C 1181.81 746.64 1181.99 756.34 1181.76 766.03 C 1178.87 802.74 1152.85 836.72 1117.82 848.41 C 1107.35 852.28 1096.08 853.45 1084.99 853.75 C 765.00 853.64 445.00 853.73 125.00 853.70 C 106.65 853.81 87.63 854.83 70.10 848.39 C 34.01 836.04 7.41 800.13 6.22 761.99 C 6.19 542.35 6.23 322.70 6.21 103.05 C 5.59 80.18 14.38 57.46 29.23 40.21 C 47.37 18.20 75.83 5.61 104.30 6.38 M 455.83 236.93 C 450.21 243.03 445.72 250.04 440.57 256.54 C 390.65 323.00 340.75 389.48 290.94 456.02 C 288.67 458.79 286.67 461.77 284.77 464.81 C 276.36 479.79 278.52 500.03 290.43 512.55 C 297.72 520.40 308.10 525.49 318.89 525.71 C 360.37 525.80 401.84 525.76 443.31 525.77 C 444.41 550.51 443.12 575.30 443.97 600.04 C 446.57 619.28 464.53 635.18 483.98 635.26 C 501.92 635.93 519.10 623.04 524.13 605.94 C 526.18 600.18 525.68 594.01 525.79 588.02 C 525.94 567.30 525.76 546.59 525.85 525.87 C 534.61 525.86 543.52 526.22 552.07 523.99 C 563.53 520.10 573.29 511.11 577.66 499.78 C 581.72 490.25 581.61 479.06 577.54 469.55 C 572.79 457.46 561.99 447.98 549.41 444.79 C 541.58 443.50 533.61 443.88 525.71 443.33 C 525.95 384.23 525.82 325.12 525.83 266.02 C 526.05 247.90 512.74 230.65 495.12 226.38 C 481.39 222.66 465.91 226.97 455.83 236.93 M 607.70 265.03 C 607.43 371.38 607.61 477.73 607.56 584.07 C 607.77 590.08 606.81 596.18 608.20 602.12 C 612.19 621.49 631.35 636.32 651.06 635.50 C 672.29 634.34 691.16 614.55 689.83 593.04 C 689.85 570.46 689.97 547.87 689.73 525.29 C 718.52 552.17 746.98 579.34 775.73 606.25 C 781.80 611.64 787.13 618.06 794.55 621.69 C 803.70 625.74 814.26 626.94 823.94 624.14 C 835.72 621.41 845.43 612.44 850.48 601.64 C 855.11 590.24 854.86 576.76 849.30 565.74 C 845.18 557.27 837.29 551.76 830.90 545.16 C 790.17 506.87 749.47 468.54 708.86 430.13 C 714.35 425.24 719.62 420.08 724.95 415.00 C 761.54 380.25 798.45 345.79 835.10 311.09 C 841.24 305.56 847.14 299.44 850.62 291.83 C 855.99 278.89 854.66 263.09 846.31 251.70 C 835.51 235.60 812.41 229.79 795.15 238.42 C 786.80 242.06 781.12 249.45 774.38 255.24 C 746.11 281.75 718.07 308.53 689.71 334.92 C 689.99 313.63 689.84 292.33 689.83 271.03 C 689.66 266.37 690.26 261.62 689.04 257.07 C 684.57 238.10 665.73 223.34 646.06 224.97 C 625.67 226.13 607.58 244.43 607.70 265.03 Z" />
<path fill="#ffffff" opacity="1.00" d=" M 428.96 408.94 C 433.88 402.94 438.16 396.32 443.71 390.90 C 443.73 408.50 443.74 426.10 443.76 443.70 C 430.30 443.79 416.84 443.79 403.38 443.61 C 411.88 432.03 420.29 420.39 428.96 408.94 Z" />
<path fill="#ffffff" opacity="1.00" d=" M 290.66 948.70 C 297.70 941.12 307.62 936.25 318.00 935.79 C 500.32 935.54 682.63 935.97 864.94 935.65 C 884.47 934.14 903.73 948.71 907.63 967.88 C 911.59 984.29 903.69 1002.44 889.54 1011.40 C 884.25 1014.47 878.44 1016.92 872.29 1017.40 L 872.44 1018.26 C 818.99 1018.69 765.52 1018.32 712.06 1018.44 C 580.17 1018.43 448.28 1018.47 316.39 1018.43 C 316.46 1018.21 316.62 1017.78 316.69 1017.56 C 305.36 1016.36 294.45 1010.37 287.73 1001.11 C 275.95 986.01 277.22 962.37 290.66 948.70 Z" />
</g>
</svg>
