<?xml version="1.0" encoding="UTF-8" ?>
<!DOCTYPE svg PUBLIC "-//W3C//DTD SVG 1.1//EN" "http://www.w3.org/Graphics/SVG/1.1/DTD/svg11.dtd">
<svg width="1188pt" height="1024pt" viewBox="0 0 1188 1024" version="1.1" xmlns="http://www.w3.org/2000/svg">
<g id="#ffffffff">
<path fill="#ffffff" opacity="1.00" d=" M 97.36 6.53 C 257.56 6.17 417.77 6.44 577.97 6.36 C 740.33 6.36 902.69 6.36 1065.04 6.36 C 1082.26 6.18 1099.98 5.59 1116.48 11.34 C 1148.92 21.63 1173.86 50.91 1180.39 84.12 C 1182.35 92.60 1181.79 101.34 1181.87 109.97 C 1181.86 326.32 1181.90 542.67 1181.85 759.02 C 1182.21 795.11 1159.42 829.90 1126.70 844.79 C 1114.06 850.88 1099.98 853.59 1086.01 853.84 C 756.33 853.80 426.65 853.85 96.96 853.81 C 50.44 852.16 8.75 811.58 6.44 764.98 C 5.96 711.66 6.37 658.33 6.21 605.01 C 6.21 437.68 6.22 270.35 6.21 103.02 C 5.51 77.30 16.71 51.87 35.01 33.99 C 51.34 17.38 74.11 7.52 97.36 6.53 M 261.75 239.80 C 254.86 247.79 251.85 258.56 252.15 268.99 C 252.35 378.01 252.19 487.03 252.22 596.05 C 252.40 613.15 265.51 628.18 281.39 633.35 C 290.85 636.79 301.61 636.01 310.55 631.43 C 324.86 624.94 334.65 609.73 334.62 594.00 C 334.58 553.12 334.69 512.24 334.57 471.37 C 380.02 471.31 425.47 471.36 470.93 471.34 C 471.11 513.22 470.77 555.10 471.05 596.97 C 472.04 618.17 491.91 636.02 513.01 635.38 C 534.16 635.09 553.35 616.29 553.16 594.95 C 553.27 484.98 553.18 375.01 553.21 265.03 C 552.92 245.72 537.34 227.98 518.16 225.40 C 499.03 222.17 478.67 234.64 473.12 253.26 C 470.47 260.20 471.08 267.71 470.89 274.97 C 470.90 313.04 471.02 351.10 470.92 389.16 C 425.49 388.50 380.04 389.14 334.61 388.84 C 334.64 348.23 334.60 307.61 334.63 267.00 C 334.86 253.87 328.25 241.02 317.84 233.13 C 309.39 226.80 298.40 223.73 287.92 225.39 C 277.88 226.91 268.17 231.82 261.75 239.80 M 678.23 225.32 C 673.11 225.65 667.82 225.21 662.95 227.11 C 647.15 232.41 635.01 248.11 635.13 264.96 C 635.08 372.32 635.12 479.67 635.10 587.02 C 635.02 592.94 634.93 598.94 636.22 604.75 C 640.16 618.52 651.45 629.86 665.23 633.80 C 671.61 635.88 678.39 635.13 684.99 635.33 C 708.68 635.25 732.37 635.34 756.06 635.16 C 776.69 635.30 797.67 636.54 817.90 631.54 C 856.06 623.38 890.60 599.53 911.68 566.66 C 928.03 541.05 937.03 510.50 935.88 480.04 C 935.72 442.37 936.01 404.70 935.75 367.03 C 933.42 326.53 914.15 287.12 883.02 260.98 C 857.55 239.03 824.45 226.62 790.97 224.99 C 778.98 224.33 767.00 225.50 755.01 225.15 C 743.35 224.45 731.66 225.08 719.99 224.76 C 706.07 224.68 692.14 224.80 678.23 225.32 Z" />
<path fill="#ffffff" opacity="1.00" d=" M 717.22 307.34 C 742.13 307.69 767.04 306.84 791.95 307.73 C 819.91 309.51 844.44 331.49 851.62 358.21 C 852.84 364.07 853.71 370.02 853.51 376.02 C 853.72 405.69 853.57 435.37 853.62 465.04 C 853.38 475.42 854.30 485.89 852.57 496.19 C 848.15 527.14 819.25 552.51 787.95 552.73 C 764.39 553.03 740.83 552.78 717.27 552.85 C 717.43 499.58 717.19 446.30 717.26 393.03 C 717.18 364.46 717.50 335.90 717.22 307.34 Z" />
<path fill="#ffffff" opacity="1.00" d=" M 311.49 936.70 C 320.22 934.78 329.18 935.89 338.03 935.65 C 466.69 935.78 595.35 935.68 724.01 935.66 C 767.01 935.91 810.01 935.45 853.01 935.55 C 862.19 935.66 871.64 934.77 880.49 937.76 C 899.29 943.66 911.94 964.64 907.97 984.02 C 904.93 1002.05 888.28 1016.95 869.99 1017.68 C 696.99 1017.71 523.99 1017.69 350.98 1017.69 C 339.20 1017.61 327.41 1017.85 315.63 1017.58 C 303.51 1015.97 292.31 1008.56 285.81 998.24 C 281.70 992.30 280.00 985.03 279.55 977.92 C 278.81 959.01 292.82 940.44 311.49 936.70 Z" />
</g>
</svg>
