<?xml version="1.0" encoding="UTF-8" ?>
<!DOCTYPE svg PUBLIC "-//W3C//DTD SVG 1.1//EN" "http://www.w3.org/Graphics/SVG/1.1/DTD/svg11.dtd">
<svg width="1188pt" height="1024pt" viewBox="0 0 1188 1024" version="1.1" xmlns="http://www.w3.org/2000/svg">
<g id="#ffffffff">
<path fill="#ffffff" opacity="1.00" d=" M 103.33 6.40 C 430.22 6.32 757.12 6.38 1084.02 6.37 C 1109.25 6.07 1134.77 15.35 1152.68 33.35 C 1169.97 50.20 1181.22 73.71 1181.85 97.98 C 1181.89 317.67 1181.88 537.37 1181.86 757.06 C 1182.33 777.32 1175.83 797.61 1163.90 813.96 C 1150.20 833.09 1129.26 847.02 1106.12 851.64 C 1094.57 854.20 1082.70 853.97 1070.95 853.93 C 752.29 853.73 433.63 853.87 114.96 853.83 C 103.94 853.72 92.74 854.66 81.93 851.87 C 45.20 843.78 14.08 812.83 7.74 775.47 C 5.68 764.10 6.32 752.50 6.21 741.01 C 6.22 527.00 6.20 312.99 6.22 98.99 C 6.92 61.15 32.97 25.64 68.25 12.46 C 79.49 8.43 91.37 6.25 103.33 6.40 M 385.27 224.33 C 342.56 225.13 301.31 250.38 281.16 288.04 C 271.48 305.36 266.47 325.18 266.06 344.99 C 265.39 372.72 274.54 400.56 291.55 422.47 C 308.30 444.11 332.43 460.00 359.01 466.62 C 384.23 472.67 410.30 469.90 435.94 470.35 C 443.37 470.59 450.98 470.39 458.09 472.90 C 475.05 479.32 486.94 497.88 484.45 516.06 C 482.34 535.30 464.76 552.26 445.08 551.83 C 435.05 551.69 425.03 552.43 415.00 552.21 C 391.99 552.53 368.98 551.17 345.98 552.21 C 337.98 552.46 329.70 551.21 321.98 553.94 C 311.31 557.37 302.26 565.33 297.35 575.39 C 292.79 583.48 292.85 593.19 294.06 602.14 C 298.17 620.22 315.38 634.41 334.02 634.47 C 371.69 634.33 409.37 634.65 447.04 634.26 C 482.91 633.72 517.72 615.91 540.06 587.99 C 558.20 565.68 567.56 536.66 566.71 507.97 C 566.10 489.04 561.49 470.13 552.40 453.46 C 536.21 422.42 505.88 399.32 471.81 391.45 C 459.16 388.17 446.01 388.14 433.03 388.09 C 418.70 388.07 404.36 388.54 390.03 387.93 C 385.61 387.76 381.06 387.98 376.82 386.46 C 360.72 381.44 349.08 365.69 347.93 349.02 C 347.37 340.44 350.40 332.05 354.81 324.81 C 362.12 313.87 374.82 306.54 388.07 306.47 C 426.04 306.29 464.00 306.68 501.97 306.31 C 525.57 305.06 543.96 279.83 538.99 256.96 C 535.59 242.88 524.94 230.67 511.10 226.11 C 504.68 223.62 497.72 224.41 491.01 224.31 C 455.76 224.21 420.51 224.30 385.27 224.33 M 661.26 224.32 C 643.21 224.08 626.63 238.07 622.53 255.40 C 620.85 261.12 621.49 267.12 621.38 272.99 C 621.43 380.33 621.27 487.67 621.49 595.00 C 621.64 611.54 633.60 626.76 649.05 632.07 C 657.31 635.34 666.31 634.00 674.95 634.43 C 698.61 634.40 722.27 634.60 745.93 634.44 C 764.01 634.26 782.32 635.50 800.12 631.53 C 837.76 624.58 872.30 602.46 894.32 571.18 C 908.46 551.36 917.57 528.07 920.94 503.98 C 923.02 491.09 922.12 478.03 922.38 465.05 C 922.38 443.71 922.56 422.38 922.33 401.05 C 922.17 382.74 923.41 364.21 919.47 346.18 C 911.82 305.46 886.48 268.32 851.02 246.79 C 829.59 233.46 804.69 225.72 779.49 224.36 C 740.08 224.17 700.66 224.32 661.26 224.32 Z" />
<path fill="#ffffff" opacity="1.00" d=" M 703.71 306.56 C 726.15 306.23 748.59 306.58 771.03 306.43 C 785.21 306.48 799.54 310.44 811.00 318.94 C 829.02 331.41 840.48 353.05 839.94 375.05 C 840.07 400.03 839.51 425.04 840.20 450.02 C 840.16 461.35 839.69 472.67 839.87 484.00 C 840.98 516.71 814.08 546.99 781.98 551.40 C 756.18 552.91 730.32 551.69 704.50 552.38 C 703.52 549.02 703.37 545.52 703.43 542.05 C 703.85 463.55 703.07 385.05 703.71 306.56 Z" />
<path fill="#ffffff" opacity="1.00" d=" M 311.47 936.64 C 318.20 935.13 325.16 935.72 332.01 935.53 C 408.36 935.85 484.71 935.68 561.06 935.72 C 663.04 935.76 765.02 935.61 867.01 935.64 C 885.68 934.97 903.30 949.10 907.48 967.16 C 909.81 976.06 908.54 985.61 904.88 993.97 C 897.97 1007.98 882.95 1018.50 867.01 1017.70 C 685.31 1017.70 503.62 1017.68 321.92 1017.71 C 301.60 1018.87 282.16 1002.15 279.93 981.96 C 276.77 961.67 291.49 940.88 311.47 936.64 Z" />
</g>
</svg>
